<?xml version="1.0" encoding="UTF-8"?>
<svg version="1.1" xmlns="http://www.w3.org/2000/svg" width="512" height="512">
<path d="M0 0 C1.729196 1.34866933 3.4381845 2.72368588 5.125 4.125 C5.97578125 4.82496094 6.8265625 5.52492188 7.703125 6.24609375 C25.32989357 21.4126845 36.52525349 41.8733308 38.28210258 65.21201324 C38.42755091 67.57925478 38.55350932 69.94656898 38.66967773 72.31542969 C38.71270492 73.19116009 38.7557321 74.06689049 38.80006313 74.96915817 C39.2197421 84.17394214 39.25213863 93.36566401 39.22265625 102.578125 C39.22078337 104.34315958 39.2193636 106.10819469 39.21836853 107.87322998 C39.2146117 112.44325279 39.20484285 117.01324208 39.19366455 121.58325195 C39.18330046 126.27685086 39.17883932 130.97045536 39.17382812 135.6640625 C39.16321192 144.81772279 39.14622151 153.97135857 39.125 163.125 C40.19860275 163.12055878 41.27220551 163.11611755 42.37834167 163.11154175 C52.54313474 163.07083066 62.70791106 163.04093686 72.87276745 163.02137566 C78.09742341 163.01098069 83.32201305 162.99690062 88.54663086 162.97412109 C93.5976202 162.95223879 98.64854612 162.94039921 103.69957924 162.93524551 C105.61748565 162.93157719 107.53538896 162.92441466 109.45326805 162.91353989 C142.89123819 162.73164395 142.89123819 162.73164395 155.6015625 174.546875 C163.87600234 183.11834601 166.73446525 193.45661517 166.60180664 205.24926758 C166.12731489 216.4152816 161.26410585 225.74558171 153.30078125 233.453125 C143.88218352 240.69039579 131.27411197 242.45510603 119.72802734 242.35205078 C118.40910492 242.35248886 118.40910492 242.35248886 117.0635376 242.35293579 C114.19589908 242.35155734 111.32852987 242.33606709 108.4609375 242.3203125 C106.45740908 242.31657708 104.45387881 242.31373261 102.4503479 242.31173706 C97.20610408 242.30414229 91.96197305 242.28452995 86.71777344 242.2623291 C81.35483322 242.24178066 75.99187458 242.23271619 70.62890625 242.22265625 C60.12755493 242.20127976 49.62628688 242.16719459 39.125 242.125 C39.18570391 257.82469893 39.26332221 273.52421905 39.36071491 289.22372818 C39.40555451 296.51437172 39.44499594 303.80496771 39.47143555 311.09570312 C39.49451206 317.45519886 39.52801639 323.81454259 39.57370156 330.17391753 C39.59750499 333.53678687 39.6147611 336.89936984 39.62261391 340.26233673 C39.63229763 344.02960797 39.66040934 347.79633958 39.69262695 351.56347656 C39.69119186 352.66112335 39.68975677 353.75877014 39.6882782 354.88967896 C39.88503294 371.25730293 45.37280161 386.14229078 56.8984375 397.95703125 C57.63320313 398.67246094 58.36796875 399.38789063 59.125 400.125 C59.71539062 400.74761719 60.30578125 401.37023437 60.9140625 402.01171875 C72.18445313 413.05868754 88.74526393 418.29230593 104.1875 418.5 C120.9464296 418.31308266 135.08431889 411.66156241 147.125 400.125 C149.317353 397.56796159 151.29823815 394.95378311 153.125 392.125 C152.30257813 391.7125 151.48015625 391.3 150.6328125 390.875 C131.98387631 381.22751338 120.48923549 368.64221318 112.95703125 349.09375 C107.67105871 331.42420799 111.19470593 312.93867096 119.75 297.0390625 C128.59064232 281.73276398 143.42491983 271.79173558 160.3125 267.25 C180.17760004 263.25304614 200.11647507 267.15407497 217.125 278.125 C230.64819531 287.87647101 240.02933604 302.84527407 242.7890625 319.3515625 C248.01251612 362.47542376 241.32327014 405.90137765 214.8046875 441.21484375 C212.63616027 443.90850214 210.40485956 446.52523119 208.125 449.125 C207.43019531 449.95257813 206.73539062 450.78015625 206.01953125 451.6328125 C187.35898115 473.31847909 162.48252932 486.79358647 135.125 494.125 C133.87589844 494.46660156 132.62679688 494.80820312 131.33984375 495.16015625 C110.32459846 499.83262547 84.70482246 499.26669583 64.125 493.125 C63.03179443 492.80354004 63.03179443 492.80354004 61.91650391 492.47558594 C25.82214594 481.51566376 -5.15894631 456.12246071 -23.125 423 C-31.21417703 407.51939892 -36.41177347 390.58078247 -37.9375 373.1875 C-38.01548828 372.37732422 -38.09347656 371.56714844 -38.17382812 370.73242188 C-39.72620048 353.8359393 -40.01443088 337.01116018 -39.97265625 320.0546875 C-39.97078612 317.79354891 -39.96936504 315.5324099 -39.96836853 313.27127075 C-39.96459016 307.38273964 -39.95480109 301.49423406 -39.94366455 295.60571289 C-39.93334857 289.57178085 -39.92884931 283.5378446 -39.92382812 277.50390625 C-39.91317358 265.71092642 -39.89615498 253.91796535 -39.875 242.125 C-41.08969971 242.14071045 -42.30439941 242.1564209 -43.5559082 242.17260742 C-48.10889931 242.22734887 -52.66186197 242.26150933 -57.21508789 242.28979492 C-59.1770519 242.30478159 -61.13898298 242.32517793 -63.10083008 242.35131836 C-78.92598563 242.55673524 -92.64929708 242.16667416 -105.1015625 231.15625 C-112.80509583 223.19304701 -116.31351315 214.4940907 -116.375 203.5 C-116.13003658 191.21258063 -112.67911988 181.51711245 -103.75 172.875 C-90.87990243 162.02582684 -73.01350531 162.83311717 -57.125 163 C-55.44531787 163.01005603 -53.76562988 163.01917722 -52.0859375 163.02734375 C-48.01547718 163.04913532 -43.94530532 163.08351837 -39.875 163.125 C-39.93620443 151.3462729 -40.01330605 139.5677675 -40.11071491 127.78928089 C-40.15544589 122.32006617 -40.19469612 116.85092642 -40.22143555 111.3815918 C-40.24744113 106.1035554 -40.28782435 100.82580706 -40.33818626 95.54794884 C-40.35487351 93.53416209 -40.3663762 91.52032549 -40.37261391 89.50647926 C-40.38223468 86.68605971 -40.41026997 83.86638021 -40.44262695 81.04614258 C-40.44119186 80.21320175 -40.43975677 79.38026093 -40.4382782 78.52207947 C-40.51329398 73.89984178 -40.91020081 70.89299812 -43.875 67.125 C-46.63383331 64.96267119 -48.39042103 64.18557237 -51.875 63.75 C-55.51019503 64.20439938 -57.12305304 64.67056082 -59.875 67.125 C-62.40354608 72.09138198 -63.16553773 77.63960192 -64.1875 83.0625 C-66.21270687 92.80028223 -70.93698574 100.98752152 -78.875 107.125 C-89.34310447 113.56691044 -100.05691817 115.84535008 -112.21875 113.47265625 C-123.12981994 110.5027038 -130.99668745 104.82063137 -136.875 95.125 C-144.37552623 80.77303155 -143.04793391 64.37548137 -138.875 49.125 C-131.42727561 25.60874204 -116.70256398 6.44998254 -94.90283203 -5.27758789 C-65.43035734 -20.31898209 -27.37475596 -19.32788677 0 0 Z " fill="#000000" transform="translate(204.875,14.875)"/>
</svg>
